# File produced by Open Asset Import Library (http://www.assimp.sf.net)
# (assimp v3.1.187496374)

mtllib door.obj.mtl

# 8 vertex positions
v  253.613 3.57346e-14 -365.821
v  353.613 3.57346e-14 -365.821
v  353.613 230 -365.821
v  253.613 230 -365.821
v  353.613 3.57346e-14 -370.821
v  253.613 3.57346e-14 -370.821
v  253.613 230 -370.821
v  353.613 230 -370.821

# 13 UV coordinates
vt 0 0 0
vt 39.3701 0 0
vt 39.3701 90.5512 0
vt 0 90.5512 0
vt -39.3701 0 0
vt -39.3701 90.5512 0
vt -1.9685 90.5512 0
vt -1.9685 0 0
vt 39.3701 1.9685 0
vt 0 1.9685 0
vt 1.9685 0 0
vt 1.9685 90.5512 0
vt -39.3701 1.9685 0

# 6 vertex normals
vn 0 0 1
vn 0 0 -1
vn -1 0 0
vn 0 1 0
vn 1 0 0
vn 0 -1 0

# Mesh 'Mesh1' with 12 faces
g Mesh1
usemtl FrontColor
f  1/1/1 2/2/1 3/3/1
f  1/1/1 3/3/1 4/4/1
f  5/5/2 6/1/2 7/4/2
f  5/5/2 7/4/2 8/6/2
f  1/1/3 4/4/3 7/7/3
f  1/1/3 7/7/3 6/8/3
f  4/1/4 3/2/4 8/9/4
f  4/1/4 8/9/4 7/10/4
f  3/4/5 2/1/5 5/11/5
f  3/4/5 5/11/5 8/12/5
f  2/5/6 1/1/6 6/10/6
f  2/5/6 6/10/6 5/13/6

