# File produced by Open Asset Import Library (http://www.assimp.sf.net)
# (assimp v3.1.187496374)

mtllib room3.obj.mtl

# 20 vertex positions
v  1903.92 3.57346e-14 -1103.1
v  1903.92 3.57346e-14 -603.095
v  1903.92 250 -603.095
v  1903.92 250 -1103.1
v  1403.92 3.57346e-14 -603.095
v  1613.92 110 -603.095
v  1403.92 250 -603.095
v  1613.92 230 -603.095
v  1693.92 110 -603.095
v  1693.92 230 -603.095
v  1703.92 3.57346e-14 -1123.1
v  1703.92 3.57346e-14 -1103.1
v  1703.92 230 -1103.1
v  1703.92 230 -1123.1
v  1403.92 3.57346e-14 -1103.1
v  1403.92 250 -1103.1
v  1603.92 3.57346e-14 -1103.1
v  1603.92 3.57346e-14 -1123.1
v  1603.92 230 -1123.1
v  1603.92 230 -1103.1

# 46 UV coordinates
vt -4.15573 -7.89492e-16 0
vt 1.31234 -7.89492e-16 0
vt 1.31234 2.73403 0
vt -4.15573 2.73403 0
vt -15.3106 -7.89492e-16 0
vt -17.6072 1.20297 0
vt -20.7787 -7.89492e-16 0
vt -15.3106 2.73403 0
vt -17.6072 2.51531 0
vt -18.4821 1.20297 0
vt -20.7787 2.73403 0
vt -18.4821 2.51531 0
vt -4.37445 -7.89492e-16 0
vt -4.15573 2.51531 0
vt -4.37445 2.51531 0
vt -1.31234 -7.89492e-16 0
vt 4.15573 -7.89492e-16 0
vt 4.15573 2.73403 0
vt -1.31234 2.73403 0
vt 4.37445 -7.89492e-16 0
vt 4.37445 2.51531 0
vt 4.15573 2.51531 0
vt 18.5914 -7.89492e-16 0
vt 20.7787 -7.89492e-16 0
vt 20.7787 2.73403 0
vt 18.5914 2.51531 0
vt 15.3106 2.73403 0
vt 17.4978 2.51531 0
vt 15.3106 -7.89492e-16 0
vt 17.4978 -7.89492e-16 0
vt 11.1549 2.49344 0
vt 11.1549 2.62467 0
vt 10.4987 2.62467 0
vt 10.4987 2.49344 0
vt 9.18635 2.49344 0
vt 9.18635 -0.787402 0
vt 12.4672 -0.787402 0
vt 12.4672 2.49344 0
vt -45.9318 12.4672 0
vt -62.336 12.4672 0
vt -62.336 -3.93701 0
vt -45.9318 -3.93701 0
vt -55.7743 13.1234 0
vt -55.7743 12.4672 0
vt -52.4934 12.4672 0
vt -52.4934 13.1234 0

# 6 vertex normals
vn -1 0 0
vn 0 0 -1
vn 1 0 0
vn 0 0 1
vn 0 1 0
vn 0 -1 0

# Mesh 'Mesh1' with 22 faces
g Mesh1
usemtl Beadboard
f  1/1/1 2/2/1 3/3/1
f  1/1/1 3/3/1 4/4/1
f  5/5/2 6/6/2 2/7/2
f  6/6/2 5/5/2 7/8/2
f  6/6/2 7/8/2 8/9/2
f  9/10/2 2/7/2 6/6/2
f  2/7/2 9/10/2 3/11/2
f  3/11/2 9/10/2 10/12/2
f  3/11/2 10/12/2 7/8/2
f  8/9/2 7/8/2 10/12/2
f  11/13/1 12/1/1 13/14/1
f  11/13/1 13/14/1 14/15/1
f  5/16/3 15/17/3 16/18/3
f  5/16/3 16/18/3 7/19/3
f  17/17/3 18/20/3 19/21/3
f  17/17/3 19/21/3 20/22/3
f  12/23/4 1/24/4 4/25/4
f  13/26/4 12/23/4 4/25/4
f  4/25/4 16/27/4 13/26/4
f  16/27/4 20/28/4 13/26/4
f  16/27/4 15/29/4 17/30/4
f  16/27/4 17/30/4 20/28/4

# Mesh 'Mesh1' with 5 faces
g Mesh1
usemtl Leather_Blue
f  12/31/5 11/32/5 18/33/5
f  12/31/5 18/33/5 17/34/5
f  12/31/5 15/35/5 5/36/5
f  12/31/5 5/36/5 2/37/5
f  12/31/5 2/37/5 1/38/5

# Mesh 'Mesh1' with 4 faces
g Mesh1
usemtl Fabric_Linen
f  16/39/6 4/40/6 3/41/6
f  16/39/6 3/41/6 7/42/6
f  14/43/6 13/44/6 20/45/6
f  14/43/6 20/45/6 19/46/6

