# File produced by Open Asset Import Library (http://www.assimp.sf.net)
# (assimp v3.1.187496374)

mtllib room1.obj.mtl

# 28 vertex positions
v  1003.92 3.57346e-14 -1723.1
v  493.922 110 -1723.1
v  3.92227 3.57346e-14 -1723.1
v  1003.92 250 -1723.1
v  493.922 230 -1723.1
v  413.922 110 -1723.1
v  3.92227 250 -1723.1
v  413.922 230 -1723.1
v  1003.92 3.57346e-14 -1323.1
v  1003.92 250 -1323.1
v  1003.92 3.57346e-14 -1123.1
v  1003.92 3.57346e-14 -723.095
v  1003.92 250 -723.095
v  1003.92 250 -1123.1
v  3.92227 3.57346e-14 -723.095
v  3.92227 110 -923.095
v  3.92227 250 -723.095
v  3.92227 110 -1003.1
v  3.92227 230 -923.095
v  3.92227 230 -1003.1
v  3.92227 230 -1443.1
v  3.92227 230 -1523.1
v  3.92227 110 -1443.1
v  3.92227 110 -1523.1
v  413.922 110 -723.095
v  413.922 230 -723.095
v  493.922 110 -723.095
v  493.922 230 -723.095

# 44 UV coordinates
vt 10.9361 -7.89492e-16 0
vt 5.35871 1.20297 0
vt 0 -7.89492e-16 0
vt 10.9361 2.73403 0
vt 5.35871 2.51531 0
vt 4.48381 1.20297 0
vt 0 2.73403 0
vt 4.48381 2.51531 0
vt -10.9361 -7.89492e-16 0
vt -6.56168 -7.89492e-16 0
vt -6.56168 2.73403 0
vt -10.9361 2.73403 0
vt -4.37445 -7.89492e-16 0
vt -4.73695e-15 -7.89492e-16 0
vt -4.73695e-15 2.73403 0
vt -4.37445 2.73403 0
vt 1.57898e-15 -7.89492e-16 0
vt 2.18723 1.20297 0
vt 1.57898e-15 2.73403 0
vt 3.06212 1.20297 0
vt 2.18723 2.51531 0
vt 3.06212 2.51531 0
vt 7.87402 2.51531 0
vt 8.74891 2.51531 0
vt 7.87402 1.20297 0
vt 8.74891 1.20297 0
vt 3.15797e-15 -7.89492e-16 0
vt -4.48381 1.20297 0
vt 3.15797e-15 2.73403 0
vt -4.48381 2.51531 0
vt -5.35871 1.20297 0
vt -5.35871 2.51531 0
vt 0 32.8084 0
vt -32.8084 32.8084 0
vt -32.8084 19.685 0
vt -32.8084 13.1234 0
vt -32.8084 1.42109e-14 0
vt 0 4.73695e-15 0
vt 0 9.4739e-16 0
vt 6.56168 2.84217e-15 0
vt 6.56168 2.62467 0
vt 6.56168 3.93701 0
vt 6.56168 6.56168 0
vt 0 6.56168 0

# 6 vertex normals
vn 0 0 1
vn -1 0 0
vn 1 0 0
vn -2.88765e-16 0 -1
vn 0 -1 0
vn 0 1 0

# Mesh 'Mesh1' with 34 faces
g Mesh1
usemtl Beadboard
f  1/1/1 2/2/1 3/3/1
f  2/2/1 1/1/1 4/4/1
f  2/2/1 4/4/1 5/5/1
f  6/6/1 3/3/1 2/2/1
f  3/3/1 6/6/1 7/7/1
f  7/7/1 6/6/1 8/8/1
f  7/7/1 8/8/1 4/4/1
f  5/5/1 4/4/1 8/8/1
f  1/9/2 9/10/2 10/11/2
f  1/9/2 10/11/2 4/12/2
f  11/13/2 12/14/2 13/15/2
f  11/13/2 13/15/2 14/16/2
f  15/17/3 16/18/3 17/19/3
f  16/18/3 15/17/3 3/1/3
f  16/18/3 3/1/3 18/20/3
f  19/21/3 17/19/3 16/18/3
f  17/19/3 19/21/3 7/4/3
f  7/4/3 19/21/3 20/22/3
f  7/4/3 20/22/3 21/23/3
f  7/4/3 21/23/3 22/24/3
f  7/4/3 22/24/3 3/1/3
f  18/20/3 3/1/3 20/22/3
f  20/22/3 3/1/3 23/25/3
f  21/23/3 20/22/3 23/25/3
f  23/25/3 3/1/3 24/26/3
f  24/26/3 3/1/3 22/24/3
f  15/27/4 25/28/4 12/9/4
f  25/28/4 15/27/4 17/29/4
f  25/28/4 17/29/4 26/30/4
f  27/31/4 12/9/4 25/28/4
f  12/9/4 27/31/4 13/12/4
f  13/12/4 27/31/4 28/32/4
f  13/12/4 28/32/4 17/29/4
f  26/30/4 17/29/4 28/32/4

# Mesh 'Mesh1' with 4 faces
g Mesh1
usemtl Fabric_Linen
f  7/33/5 4/34/5 10/35/5
f  7/33/5 10/35/5 14/36/5
f  7/33/5 14/36/5 13/37/5
f  13/37/5 17/38/5 7/33/5

# Mesh 'Mesh1' with 4 faces
g Mesh1
usemtl Leather_Blue
f  15/39/6 12/40/6 11/41/6
f  15/39/6 11/41/6 9/42/6
f  15/39/6 9/42/6 1/43/6
f  1/43/6 3/44/6 15/39/6

