# File produced by Open Asset Import Library (http://www.assimp.sf.net)
# (assimp v3.1.187496374)

mtllib room5.obj.mtl

# 24 vertex positions
v  1853.92 250 -1.09523
v  2063.92 360 -1.09523
v  2353.92 250 -1.09523
v  1853.92 500 -1.09523
v  2063.92 480 -1.09523
v  2143.92 360 -1.09523
v  2353.92 500 -1.09523
v  2143.92 480 -1.09523
v  2153.92 250 -521.095
v  2153.92 250 -501.095
v  2153.92 480 -501.095
v  2153.92 480 -521.095
v  2053.92 250 -501.095
v  2053.92 250 -521.095
v  2053.92 480 -521.095
v  2053.92 480 -501.095
v  2353.92 480 -211.095
v  2353.92 500 -501.095
v  2353.92 480 -291.095
v  2353.92 360 -211.095
v  2353.92 250 -501.095
v  2353.92 360 -291.095
v  1853.92 250 -501.095
v  1853.92 500 -501.095

# 50 UV coordinates
vt -20.2318 2.73403 0
vt -22.5284 3.93701 0
vt -25.6999 2.73403 0
vt -20.2318 5.46807 0
vt -22.5284 5.24934 0
vt -23.4033 3.93701 0
vt -25.6999 5.46807 0
vt -23.4033 5.24934 0
vt 2.2091 2.73403 0
vt 2.42782 2.73403 0
vt 2.42782 5.24934 0
vt 2.2091 5.24934 0
vt -2.42782 2.73403 0
vt -2.2091 2.73403 0
vt -2.2091 5.24934 0
vt -2.42782 5.24934 0
vt 7.89589 5.46807 0
vt 5.5993 5.24934 0
vt 7.89589 2.73403 0
vt 2.42782 5.46807 0
vt 4.72441 5.24934 0
vt 5.5993 3.93701 0
vt 4.72441 3.93701 0
vt -7.89589 2.73403 0
vt -2.42782 5.46807 0
vt -7.89589 5.46807 0
vt 23.5127 2.73403 0
vt 25.6999 2.73403 0
vt 25.6999 5.46807 0
vt 23.5127 5.24934 0
vt 20.2318 5.46807 0
vt 22.4191 5.24934 0
vt 20.2318 2.73403 0
vt 22.4191 2.73403 0
vt 14.1076 -1.45669 0
vt 14.1076 -1.32546 0
vt 13.4514 -1.32546 0
vt 13.4514 -1.45669 0
vt 12.1391 -1.45669 0
vt 12.1391 -4.73753 0
vt 15.4199 -4.73753 0
vt 15.4199 -1.45669 0
vt -60.6955 -7.28346 0
vt -77.0997 -7.28346 0
vt -77.0997 -23.6877 0
vt -60.6955 -23.6877 0
vt -70.5381 -6.6273 0
vt -70.5381 -7.28346 0
vt -67.2572 -7.28346 0
vt -67.2572 -6.6273 0

# 6 vertex normals
vn 0 0 -1
vn -1 0 0
vn 1 0 0
vn 0 0 1
vn 0 1 0
vn 0 -1 0

# Mesh 'Mesh1' with 28 faces
g Mesh1
usemtl Beadboard
f  1/1/1 2/2/1 3/3/1
f  2/2/1 1/1/1 4/4/1
f  2/2/1 4/4/1 5/5/1
f  6/6/1 3/3/1 2/2/1
f  3/3/1 6/6/1 7/7/1
f  7/7/1 6/6/1 8/8/1
f  7/7/1 8/8/1 4/4/1
f  5/5/1 4/4/1 8/8/1
f  9/9/2 10/10/2 11/11/2
f  9/9/2 11/11/2 12/12/2
f  13/13/3 14/14/3 15/15/3
f  13/13/3 15/15/3 16/16/3
f  7/17/2 17/18/2 3/19/2
f  17/18/2 7/17/2 18/20/2
f  17/18/2 18/20/2 19/21/2
f  20/22/2 3/19/2 17/18/2
f  3/19/2 20/22/2 21/10/2
f  21/10/2 20/22/2 22/23/2
f  21/10/2 22/23/2 18/20/2
f  19/21/2 18/20/2 22/23/2
f  1/24/3 23/13/3 24/25/3
f  1/24/3 24/25/3 4/26/3
f  10/27/4 21/28/4 18/29/4
f  11/30/4 10/27/4 18/29/4
f  18/29/4 24/31/4 11/30/4
f  24/31/4 16/32/4 11/30/4
f  24/31/4 23/33/4 13/34/4
f  24/31/4 13/34/4 16/32/4

# Mesh 'Mesh1' with 5 faces
g Mesh1
usemtl Leather_Blue
f  10/35/5 9/36/5 14/37/5
f  10/35/5 14/37/5 13/38/5
f  10/35/5 23/39/5 1/40/5
f  10/35/5 1/40/5 3/41/5
f  10/35/5 3/41/5 21/42/5

# Mesh 'Mesh1' with 4 faces
g Mesh1
usemtl Fabric_Linen
f  24/43/6 18/44/6 7/45/6
f  24/43/6 7/45/6 4/46/6
f  12/47/6 11/48/6 16/49/6
f  12/47/6 16/49/6 15/50/6

