# File produced by Open Asset Import Library (http://www.assimp.sf.net)
# (assimp v3.1.187496374)

mtllib room4.obj.mtl

# 24 vertex positions
v  2053.92 -3.60956e-16 -1643.1
v  2053.92 -3.60956e-16 -1623.1
v  2153.92 -3.60956e-16 -1623.1
v  2153.92 -3.60956e-16 -1643.1
v  2353.92 -3.60956e-16 -1643.1
v  2353.92 -3.60956e-16 -2143.1
v  1853.92 -3.60956e-16 -2143.1
v  1853.92 -3.60956e-16 -1643.1
v  2143.92 110 -2143.1
v  2353.92 250 -2143.1
v  2143.92 230 -2143.1
v  2063.92 110 -2143.1
v  1853.92 250 -2143.1
v  2063.92 230 -2143.1
v  1853.92 250 -1643.1
v  2153.92 230 -1623.1
v  2153.92 230 -1643.1
v  2053.92 230 -1643.1
v  2053.92 230 -1623.1
v  2353.92 250 -1643.1
v  2353.92 230 -1853.1
v  2353.92 230 -1933.1
v  2353.92 110 -1853.1
v  2353.92 110 -1933.1

# 50 UV coordinates
vt 13.4514 6.03675 0
vt 13.4514 5.90551 0
vt 14.1076 5.90551 0
vt 14.1076 6.03675 0
vt 15.4199 6.03675 0
vt 15.4199 9.31758 0
vt 12.1391 9.31758 0
vt 12.1391 6.03675 0
vt 25.6999 -7.89492e-16 0
vt 23.4033 1.20297 0
vt 20.2318 -7.89492e-16 0
vt 25.6999 2.73403 0
vt 23.4033 2.51531 0
vt 22.5284 1.20297 0
vt 20.2318 2.73403 0
vt 22.5284 2.51531 0
vt 10.0612 -7.89492e-16 0
vt 15.5293 -7.89492e-16 0
vt 15.5293 2.73403 0
vt 10.0612 2.73403 0
vt -10.0612 -7.89492e-16 0
vt -9.84252 -7.89492e-16 0
vt -9.84252 2.51531 0
vt -10.0612 2.51531 0
vt 9.84252 -7.89492e-16 0
vt 10.0612 2.51531 0
vt 9.84252 2.51531 0
vt -10.0612 2.73403 0
vt -12.3578 2.51531 0
vt -15.5293 2.73403 0
vt -13.2327 2.51531 0
vt -12.3578 1.20297 0
vt -15.5293 -7.89492e-16 0
vt -13.2327 1.20297 0
vt -22.4191 -7.89492e-16 0
vt -20.2318 -7.89492e-16 0
vt -20.2318 2.73403 0
vt -22.4191 2.51531 0
vt -25.6999 2.73403 0
vt -23.5127 2.51531 0
vt -25.6999 -7.89492e-16 0
vt -23.5127 -7.89492e-16 0
vt -77.0997 30.1837 0
vt -60.6955 30.1837 0
vt -60.6955 46.5879 0
vt -77.0997 46.5879 0
vt -67.2572 29.5276 0
vt -67.2572 30.1837 0
vt -70.5381 30.1837 0
vt -70.5381 29.5276 0

# 6 vertex normals
vn 0 1 0
vn 0 0 1
vn 1 0 0
vn -1 0 0
vn 0 0 -1
vn 0 -1 0

# Mesh 'Mesh1' with 5 faces
g Mesh1
usemtl Leather_Blue
f  1/1/1 2/2/1 3/3/1
f  1/1/1 3/3/1 4/4/1
f  1/1/1 5/5/1 6/6/1
f  1/1/1 6/6/1 7/7/1
f  1/1/1 7/7/1 8/8/1

# Mesh 'Mesh1' with 28 faces
g Mesh1
usemtl Beadboard
f  6/9/2 9/10/2 7/11/2
f  9/10/2 6/9/2 10/12/2
f  9/10/2 10/12/2 11/13/2
f  12/14/2 7/11/2 9/10/2
f  7/11/2 12/14/2 13/15/2
f  13/15/2 12/14/2 14/16/2
f  13/15/2 14/16/2 10/12/2
f  11/13/2 10/12/2 14/16/2
f  8/17/3 7/18/3 13/19/3
f  8/17/3 13/19/3 15/20/3
f  4/21/4 3/22/4 16/23/4
f  4/21/4 16/23/4 17/24/4
f  2/25/3 1/17/3 18/26/3
f  2/25/3 18/26/3 19/27/3
f  20/28/4 21/29/4 5/21/4
f  21/29/4 20/28/4 10/30/4
f  21/29/4 10/30/4 22/31/4
f  23/32/4 5/21/4 21/29/4
f  5/21/4 23/32/4 6/33/4
f  6/33/4 23/32/4 24/34/4
f  6/33/4 24/34/4 10/30/4
f  22/31/4 10/30/4 24/34/4
f  1/35/5 8/36/5 15/37/5
f  18/38/5 1/35/5 15/37/5
f  15/37/5 20/39/5 18/38/5
f  20/39/5 17/40/5 18/38/5
f  20/39/5 5/41/5 4/42/5
f  20/39/5 4/42/5 17/40/5

# Mesh 'Mesh1' with 4 faces
g Mesh1
usemtl Fabric_Linen
f  20/43/6 15/44/6 13/45/6
f  20/43/6 13/45/6 10/46/6
f  19/47/6 18/48/6 17/49/6
f  19/47/6 17/49/6 16/50/6

