# File produced by Open Asset Import Library (http://www.assimp.sf.net)
# (assimp v3.1.187496374)

mtllib stairs.obj.mtl

# 40 vertex positions
v  2003.92 25 -960.842
v  2003.92 50 -960.842
v  2203.92 50 -960.842
v  2203.92 25 -960.842
v  2003.92 150 -840.842
v  2003.92 150 -810.842
v  2203.92 150 -810.842
v  2203.92 150 -840.842
v  2003.92 175 -810.842
v  2003.92 175 -780.842
v  2203.92 175 -780.842
v  2203.92 175 -810.842
v  2003.92 50 -930.842
v  2003.92 75 -930.842
v  2203.92 75 -930.842
v  2203.92 50 -930.842
v  2003.92 125 -870.842
v  2003.92 125 -840.842
v  2203.92 125 -840.842
v  2203.92 125 -870.842
v  2003.92 3.57346e-14 -990.842
v  2003.92 25 -990.842
v  2203.92 25 -990.842
v  2203.92 1.44021e-13 -990.842
v  2203.92 250 -720.842
v  2203.92 225 -720.842
v  2003.92 225 -720.842
v  2003.92 250 -720.842
v  2003.92 75 -900.842
v  2203.92 75 -900.842
v  2003.92 100 -900.842
v  2203.92 100 -900.842
v  2003.92 100 -870.842
v  2203.92 100 -870.842
v  2003.92 200 -750.842
v  2003.92 225 -750.842
v  2203.92 225 -750.842
v  2203.92 200 -750.842
v  2003.92 200 -780.842
v  2203.92 200 -780.842

# 42 UV coordinates
vt -10.9361 0.136702 0
vt -10.9361 0.273403 0
vt -12.0297 0.273403 0
vt -12.0297 0.136702 0
vt 10.9361 0.643847 0
vt 10.9361 0.479805 0
vt 12.0297 0.479805 0
vt 12.0297 0.643847 0
vt 10.9361 0.315763 0
vt 12.0297 0.315763 0
vt -10.9361 0.82021 0
vt -10.9361 0.956912 0
vt -12.0297 0.956912 0
vt -12.0297 0.82021 0
vt -10.9361 0.410105 0
vt -12.0297 0.410105 0
vt 10.9361 0.807889 0
vt 12.0297 0.807889 0
vt -10.9361 -3.94746e-16 0
vt -12.0297 1.97373e-16 0
vt -12.0297 1.36702 0
vt -12.0297 1.23031 0
vt -10.9361 1.23031 0
vt -10.9361 1.36702 0
vt 10.9361 1.30002 0
vt 10.9361 1.13597 0
vt 12.0297 1.13597 0
vt 12.0297 1.30002 0
vt 10.9361 0.971931 0
vt 12.0297 0.971931 0
vt -10.9361 0.683508 0
vt -12.0297 0.683508 0
vt -10.9361 0.546807 0
vt -12.0297 0.546807 0
vt -10.9361 1.09361 0
vt -12.0297 1.09361 0
vt 10.9361 0.151721 0
vt 12.0297 0.151721 0
vt 10.9361 1.46406 0
vt 12.0297 1.46406 0
vt 10.9361 -0.0123209 0
vt 12.0297 -0.0123209 0

# 7 vertex normals
vn 0 0 -1
vn -3.60956e-16 1 3.53228e-32
vn -3.60956e-16 1 -3.82181e-32
vn -1.44382e-15 -3.13528e-31 -1
vn -7.21911e-16 8.31515e-30 -1
vn -3.60956e-16 1 0
vn -3.60956e-16 1 -5.73272e-32

# Mesh 'Mesh1' with 38 faces
g Mesh1
usemtl Wood_Veneer_01
f  1/1/1 2/2/1 3/3/1
f  1/1/1 3/3/1 4/4/1
f  5/5/2 6/6/2 7/7/2
f  5/5/2 7/7/2 8/8/2
f  9/6/3 10/9/3 11/10/3
f  9/6/3 11/10/3 12/7/3
f  6/11/4 9/12/4 12/13/4
f  6/11/4 12/13/4 7/14/4
f  13/2/4 14/15/4 15/16/4
f  13/2/4 15/16/4 16/3/4
f  17/17/3 18/5/3 19/8/3
f  17/17/3 19/8/3 20/18/3
f  21/19/1 22/1/1 23/4/1
f  21/19/1 23/4/1 24/20/1
f  25/21/5 26/22/5 27/23/5
f  25/21/5 27/23/5 28/24/5
f  2/25/2 13/26/2 16/27/2
f  2/25/2 16/27/2 3/28/2
f  14/26/3 29/29/3 30/30/3
f  14/26/3 30/30/3 15/27/3
f  18/31/1 5/11/1 8/14/1
f  18/31/1 8/14/1 19/32/1
f  29/15/1 31/33/1 32/34/1
f  29/15/1 32/34/1 30/16/1
f  33/33/4 17/31/4 20/32/4
f  33/33/4 20/32/4 34/34/4
f  35/35/4 36/23/4 37/22/4
f  35/35/4 37/22/4 38/36/4
f  39/9/2 35/37/2 38/38/2
f  39/9/2 38/38/2 40/10/2
f  22/39/6 1/25/6 4/28/6
f  22/39/6 4/28/6 23/40/6
f  31/29/3 33/17/3 34/18/3
f  31/29/3 34/18/3 32/30/3
f  10/12/1 39/35/1 40/36/1
f  10/12/1 40/36/1 11/13/1
f  36/37/7 27/41/7 26/42/7
f  36/37/7 26/42/7 37/38/7

