# File produced by Open Asset Import Library (http://www.assimp.sf.net)
# (assimp v3.1.187496374)

mtllib window.obj.mtl

# 8 vertex positions
v  493.922 110 -358.095
v  493.922 230 -358.095
v  413.922 230 -358.095
v  413.922 110 -358.095
v  493.922 230 -363.095
v  413.922 230 -363.095
v  413.922 110 -363.095
v  493.922 110 -363.095

# 12 UV coordinates
vt 31.4961 0 0
vt 31.4961 47.2441 0
vt 0 47.2441 0
vt 0 0 0
vt 31.4961 1.9685 0
vt 0 1.9685 0
vt -1.9685 47.2441 0
vt -1.9685 0 0
vt -31.4961 1.9685 0
vt -31.4961 0 0
vt 1.9685 0 0
vt 1.9685 47.2441 0

# 5 vertex normals
vn 0 0 1
vn 0 1 0
vn -1 0 0
vn 0 -1 0
vn 1 0 0

# Mesh 'Mesh1' with 10 faces
g Mesh1
usemtl FrontColor
f  1/1/1 2/2/1 3/3/1
f  1/1/1 3/3/1 4/4/1
f  5/5/2 6/6/2 3/4/2
f  5/5/2 3/4/2 2/1/2
f  6/7/3 7/8/3 4/4/3
f  6/7/3 4/4/3 3/3/3
f  7/6/4 8/9/4 1/10/4
f  7/6/4 1/10/4 4/4/4
f  8/11/5 5/12/5 2/3/5
f  8/11/5 2/3/5 1/4/5

