# Alias OBJ Model File
# Exported from SketchUp, (c) 2000-2012 Trimble Navigation Limited
# File units = meters

mtllib ghouse.mtl

g Mesh1 Model

usemtl Beadboard
v 1900 -7.21911e-16 -594.78
vt -2077.87 -7.89492e-16
vn 0 0 -1
v 1400 -7.21911e-16 -594.78
vt -1531.06 -7.89492e-16
v 1400 250 -594.78
vt -1531.06 273.403
v 1900 250 -594.78
vt -2077.87 273.403
f 1/1/1 2/2/1 3/3/1 4/4/1 

usemtl Leather_Blue
v 2200 1.09478e-13 -982.527
vt 1443.57 644.703
vn -6.11818e-18 1 -6.73492e-18
v 2200 -7.21911e-16 -1614.78
vt 1443.57 1059.57
v 2150 -7.21911e-16 -1614.78
vt 1410.76 1059.57
v 2150 -7.21911e-16 -1634.78
vt 1410.76 1072.69
v 2350 -7.21911e-16 -1634.78
vt 1541.99 1072.69
v 2350 -7.21911e-16 -2134.78
vt 1541.99 1400.77
v 1850 -7.21911e-16 -2134.78
vt 1213.91 1400.77
v 1850 -7.21911e-16 -1634.78
vt 1213.91 1072.69
v 2050 -7.21911e-16 -1634.78
vt 1345.14 1072.69
v 2050 -7.21911e-16 -1614.78
vt 1345.14 1059.57
v 2000 -7.21911e-16 -1614.78
vt 1312.34 1059.57
v 2000 -7.21911e-16 -1314.78
vt 1312.34 862.717
v 1400 -7.21911e-16 -1314.78
vt 918.635 862.717
v 1400 -7.21911e-16 -1334.78
vt 918.635 875.84
v 1600 -7.21911e-16 -1334.78
vt 1049.87 875.84
v 1600 -7.21911e-16 -1834.78
vt 1049.87 1203.92
v 1100 -7.21911e-16 -1834.78
vt 721.785 1203.92
v 1100 -7.21911e-16 -1334.78
vt 721.785 875.84
v 1300 -7.21911e-16 -1334.78
vt 853.018 875.84
v 1300 -7.21911e-16 -1314.78
vt 853.018 862.717
v 1000 -7.21911e-16 -1314.78
vt 656.168 862.717
v 1000 -7.21911e-16 -1714.78
vt 656.168 1125.18
v 0 -7.21911e-16 -1714.78
vt -2.89815e-33 1125.18
v 0 -7.21911e-16 -714.78
vt -2.89815e-33 469.016
v 1000 -7.21911e-16 -714.78
vt 656.168 469.016
v 1000 -7.21911e-16 -1114.78
vt 656.168 731.483
v 1600 -7.21911e-16 -1114.78
vt 1049.87 731.483
v 1600 -7.21911e-16 -1094.78
vt 1049.87 718.36
v 1400 -7.21911e-16 -1094.78
vt 918.635 718.36
vt 918.635 390.276
vt 1246.72 390.276
v 1900 -7.21911e-16 -1094.78
vt 1246.72 718.36
v 1700 -7.21911e-16 -1094.78
vt 1115.49 718.36
v 1700 -7.21911e-16 -1114.78
vt 1115.49 731.483
v 2000 -7.21911e-16 -1114.78
vt 1312.34 731.483
v 2000 -7.21911e-16 -982.527
vt 1312.34 644.703
f 5/5/2 6/6/2 7/7/2 8/8/2 9/9/2 10/10/2 11/11/2 12/12/2 13/13/2 14/14/2 15/15/2 16/16/2 17/17/2 18/18/2 19/19/2 20/20/2 21/21/2 22/22/2 23/23/2 24/24/2 25/25/2 26/26/2 27/27/2 28/28/2 29/29/2 30/30/2 31/31/2 32/32/2 33/33/2 2/34/2 1/35/2 34/36/2 35/37/2 36/38/2 37/39/2 38/40/2 

usemtl Beadboard
v 2200 250 -1114.78
vt -1219.14 273.403
vn -1 -3.34984e-15 1.4782e-15
v 2200 250 -1614.78
vt -1765.94 273.403
vt -1765.94 -8.06033e-12
vt -1074.5 -7.93981e-12
v 2200 25 -982.527
vt -1074.5 27.3403
v 2200 25 -952.527
vt -1041.7 27.3403
v 2200 50 -952.527
vt -1041.7 54.6807
v 2200 50 -922.527
vt -1008.89 54.6807
v 2200 75 -922.527
vt -1008.89 82.021
v 2200 75 -892.527
vt -976.079 82.021
v 2200 100 -892.527
vt -976.079 109.361
v 2200 100 -862.527
vt -943.271 109.361
v 2200 125 -862.527
vt -943.271 136.702
v 2200 125 -832.527
vt -910.462 136.702
v 2200 150 -832.527
vt -910.462 164.042
v 2200 150 -802.527
vt -877.654 164.042
v 2200 175 -802.527
vt -877.654 191.382
v 2200 175 -772.527
vt -844.846 191.382
v 2200 200 -772.527
vt -844.846 218.723
v 2200 200 -742.527
vt -812.037 218.723
v 2200 225 -742.527
vt -812.037 246.063
v 2200 225 -712.527
vt -779.229 246.063
v 2200 250 -712.527
vt -779.229 273.403
v 2200 250 -512.78
vt -560.783 273.403
v 2200 500 -512.78
vt -560.783 546.807
v 2200 500 -1114.78
vt -1219.14 546.807
f 39/41/3 40/42/3 6/43/3 5/44/3 41/45/3 42/46/3 43/47/3 44/48/3 45/49/3 46/50/3 47/51/3 48/52/3 49/53/3 50/54/3 51/55/3 52/56/3 53/57/3 54/58/3 55/59/3 56/60/3 57/61/3 58/62/3 59/63/3 60/64/3 61/65/3 62/66/3 

usemtl Fabric_Linen
vt -7217.85 5297.83
vn 2.6979e-18 -1 2.96615e-18
vt -7217.85 3657.41
v 2000 250 -1114.78
vt -6561.68 3657.41
v 1700 250 -1114.78
vt -5577.43 3657.41
v 1700 250 -1094.78
vt -5577.43 3591.8
v 1900 250 -1094.78
vt -6233.6 3591.8
vt -6233.6 1951.38
vt -4593.18 1951.38
v 1400 250 -1094.78
vt -4593.18 3591.8
v 1600 250 -1094.78
vt -5249.34 3591.8
v 1600 250 -1114.78
vt -5249.34 3657.41
v 1000 250 -1114.78
vt -3280.84 3657.41
v 1000 250 -714.78
vt -3280.84 2345.08
v 0 250 -714.78
vt -2.21284e-15 2345.08
v 0 250 -1714.78
vt -2.21284e-15 5625.92
v 1000 250 -1714.78
vt -3280.84 5625.92
v 1000 250 -1314.78
vt -3280.84 4313.58
v 1300 250 -1314.78
vt -4265.09 4313.58
v 1300 250 -1334.78
vt -4265.09 4379.2
v 1100 250 -1334.78
vt -3608.92 4379.2
v 1100 250 -1834.78
vt -3608.92 6019.62
v 1600 250 -1834.78
vt -5249.34 6019.62
v 1600 250 -1334.78
vt -5249.34 4379.2
v 1400 250 -1334.78
vt -4593.18 4379.2
v 1400 250 -1314.78
vt -4593.18 4313.58
v 2000 250 -1314.78
vt -6561.68 4313.58
v 2000 250 -1614.78
vt -6561.68 5297.83
v 2050 250 -1614.78
vt -6725.72 5297.83
v 2050 250 -1634.78
vt -6725.72 5363.45
v 1850 250 -1634.78
vt -6069.55 5363.45
v 1850 250 -2134.78
vt -6069.55 7003.87
v 2350 250 -2134.78
vt -7709.97 7003.87
v 2350 250 -1634.78
vt -7709.97 5363.45
v 2150 250 -1634.78
vt -7053.81 5363.45
v 2150 250 -1614.78
vt -7053.81 5297.83
f 40/67/4 39/68/4 63/69/4 64/70/4 65/71/4 66/72/4 4/73/4 3/74/4 67/75/4 68/76/4 69/77/4 70/78/4 71/79/4 72/80/4 73/81/4 74/82/4 75/83/4 76/84/4 77/85/4 78/86/4 79/87/4 80/88/4 81/89/4 82/90/4 83/91/4 84/92/4 85/93/4 86/94/4 87/95/4 88/96/4 89/97/4 90/98/4 91/99/4 92/100/4 93/101/4 

usemtl Beadboard
v 2000 500 -1114.78
vt 2187.23 546.807
vn 0 0 1
vt 2187.23 273.403
vt 2405.95 273.403
vt 2405.95 546.807
f 94/102/5 63/103/5 39/104/5 62/105/5 

vt 1219.14 273.403
vn 1 -2.03294e-15 9.19235e-16
vt 1219.14 546.807
v 2000 500 -512.78
vt 560.783 546.807
v 2000 250 -512.78
vt 560.783 273.403
v 2000 250 -712.527
vt 779.229 273.403
v 2000 225 -712.527
vt 779.229 246.063
v 2000 225 -742.527
vt 812.037 246.063
v 2000 200 -742.527
vt 812.037 218.723
v 2000 200 -772.527
vt 844.846 218.723
v 2000 175 -772.527
vt 844.846 191.382
v 2000 175 -802.527
vt 877.654 191.382
v 2000 150 -802.527
vt 877.654 164.042
v 2000 150 -832.527
vt 910.462 164.042
v 2000 125 -832.527
vt 910.462 136.702
v 2000 125 -862.527
vt 943.271 136.702
v 2000 100 -862.527
vt 943.271 109.361
v 2000 100 -892.527
vt 976.079 109.361
v 2000 75 -892.527
vt 976.079 82.021
v 2000 75 -922.527
vt 1008.89 82.021
v 2000 50 -922.527
vt 1008.89 54.6807
v 2000 50 -952.527
vt 1041.7 54.6807
v 2000 25 -952.527
vt 1041.7 27.3403
v 2000 25 -982.527
vt 1074.5 27.3403
vt 1074.5 4.4457e-12
vt 1219.14 4.4457e-12
f 63/106/6 94/107/6 95/108/6 96/109/6 97/110/6 98/111/6 99/112/6 100/113/6 101/114/6 102/115/6 103/116/6 104/117/6 105/118/6 106/119/6 107/120/6 108/121/6 109/122/6 110/123/6 111/124/6 112/125/6 113/126/6 114/127/6 115/128/6 38/129/6 37/130/6 

usemtl Fabric_Linen
vn 0 -1 -0
vt -7217.85 1682.35
v 2150 500 -512.78
vt -7053.81 1682.35
v 2150 500 -492.78
vt -7053.81 1616.73
v 2350 500 -492.78
vt -7709.97 1616.73
v 2350 500 7.22
vt -7709.97 -23.6877
v 1850 500 7.22
vt -6069.55 -23.6877
v 1850 500 -492.78
vt -6069.55 1616.73
v 2050 500 -492.78
vt -6725.72 1616.73
v 2050 500 -512.78
vt -6725.72 1682.35
vt -6561.68 1682.35
f 62/68/7 61/131/7 116/132/7 117/133/7 118/134/7 119/135/7 120/136/7 121/137/7 122/138/7 123/139/7 95/140/7 94/69/7 

usemtl Beadboard
vt -2405.95 273.403
vn 0 3.23947e-17 -1
v 2150 250 -512.78
vt -2351.27 273.403
vt -2351.27 546.807
vt -2405.95 546.807
f 60/141/8 124/142/8 116/143/8 61/144/8 

usemtl Leather_Blue
vt 1312.34 336.47
vn -2.40637e-17 1 3.23947e-17
v 2050 250 -512.78
vt 1345.14 336.47
v 2050 250 -492.78
vt 1345.14 323.346
v 1850 250 -492.78
vt 1213.91 323.346
v 1850 250 7.22
vt 1213.91 -4.73753
v 2350 250 7.22
vt 1541.99 -4.73753
v 2350 250 -492.78
vt 1541.99 323.346
v 2150 250 -492.78
vt 1410.76 323.346
vt 1410.76 336.47
vt 1443.57 336.47
vt 1443.57 467.537
vt 1312.34 467.537
f 96/145/9 125/146/9 126/147/9 127/148/9 128/149/9 129/150/9 130/151/9 131/152/9 124/153/9 60/154/9 59/155/9 97/156/9 

usemtl Beadboard
vt -2241.91 273.403
vt -2187.23 273.403
vt -2187.23 546.807
vt -2241.91 546.807
f 125/157/8 96/158/8 95/159/8 123/160/8 

vt 538.911 273.403
vn 1 2.40637e-17 -0
vt 538.911 546.807
f 126/161/10 125/109/10 123/108/10 122/162/10 

vt 2023.18 273.403
vn 0 -3.23947e-17 1
vt 2241.91 273.403
vt 2241.91 546.807
vt 2023.18 546.807
f 127/163/11 126/164/11 122/165/11 121/166/11 

vt -7.89589 273.403
vt -7.89589 546.807
f 128/167/10 127/161/10 121/162/10 120/168/10 

vt -2569.99 273.403
vt -2023.18 273.403
vt -2023.18 546.807
vt -2569.99 546.807
f 129/169/8 128/170/8 120/171/8 119/172/8 

vt -538.911 273.403
vn -1 -2.40637e-17 -0
vt 7.89589 273.403
vt 7.89589 546.807
vt -538.911 546.807
f 130/173/12 129/174/12 119/175/12 118/176/12 

vt 2351.27 273.403
vt 2569.99 273.403
vt 2569.99 546.807
vt 2351.27 546.807
f 131/177/11 130/178/11 118/179/11 117/180/11 

f 124/64/12 131/173/12 117/176/12 116/65/12 

usemtl Wood_Veneer_01
vt -1202.97 136.702
vn -8.93929e-16 7.21911e-16 -1
vt -1202.97 123.031
vt -1093.61 123.031
vt -1093.61 136.702
f 59/181/13 58/182/13 98/183/13 97/184/13 

vt 1093.61 406.019
vn -5.51e-16 1 -0
vt 1093.61 389.614
vt 1202.97 389.614
vt 1202.97 406.019
f 99/185/14 98/186/14 58/187/14 57/188/14 

vt -1093.61 109.361
vn -9.03904e-16 0 -1
vt -1202.97 109.361
f 100/189/15 99/183/15 57/182/15 56/190/15 

vt 1093.61 422.423
vt 1202.97 422.423
f 101/191/14 100/185/14 56/188/14 55/192/14 

vt -1093.61 95.6912
vt -1202.97 95.6912
f 102/193/15 101/189/15 55/190/15 54/194/15 

vt 1093.61 438.827
vt 1202.97 438.827
f 103/195/14 102/191/14 54/192/14 53/196/14 

vt -1093.61 82.021
vt -1202.97 82.021
f 104/197/15 103/193/15 53/194/15 52/198/15 

vt 1093.61 455.231
vt 1202.97 455.231
f 105/199/14 104/195/14 52/196/14 51/200/14 

vt -1093.61 68.3508
vt -1202.97 68.3508
f 106/201/15 105/197/15 51/198/15 50/202/15 

vt 1093.61 471.635
vt 1202.97 471.635
f 107/203/14 106/199/14 50/200/14 49/204/14 

vt -1093.61 54.6807
vt -1202.97 54.6807
f 108/205/15 107/201/15 49/202/15 48/206/15 

vt 1093.61 488.04
vt 1202.97 488.04
f 109/207/14 108/203/14 48/204/14 47/208/14 

vt -1093.61 41.0105
vt -1202.97 41.0105
f 110/209/15 109/205/15 47/206/15 46/210/15 

vt 1093.61 504.444
vt 1202.97 504.444
f 111/211/14 110/207/14 46/208/14 45/212/14 

vt -1093.61 27.3403
vt -1202.97 27.3403
f 112/213/15 111/209/15 45/210/15 44/214/15 

vt 1093.61 520.848
vt 1202.97 520.848
f 113/215/14 112/211/14 44/212/14 43/216/14 

vt -1093.61 13.6702
vt -1202.97 13.6702
f 114/217/15 113/213/15 43/214/15 42/218/15 

vt 1093.61 537.252
vt 1202.97 537.252
f 115/219/14 114/215/14 42/216/14 41/220/14 

vt -1093.61 -3.94746e-16
vn -5.41434e-16 -1.04127e-31 -1
vt -1202.97 5.98634e-14
f 38/221/16 115/217/16 41/218/16 5/222/16 

usemtl Beadboard
vt -2187.23 -7.89492e-16
vt -1859.14 -7.89492e-16
vt -1859.14 273.403
f 63/158/1 37/223/1 36/224/1 64/225/1 

vt -1219.14 -7.89492e-16
vn -1 0 -0
vt -1197.27 -7.89492e-16
vt -1197.27 273.403
f 36/226/17 35/227/17 65/228/17 64/41/17 

vt 1859.14 -7.89492e-16
vt 2077.87 -7.89492e-16
vt 2077.87 273.403
vt 1859.14 273.403
f 35/229/5 34/230/5 66/231/5 65/232/5 

vt -650.459 -7.89492e-16
vt -650.459 273.403
f 34/227/17 1/233/17 4/234/17 66/228/17 

vt 650.459 -7.89492e-16
vn 1 0 -0
vt 1197.27 -7.89492e-16
vt 1197.27 273.403
vt 650.459 273.403
f 2/235/18 33/236/18 67/237/18 3/238/18 

vt 1531.06 -7.89492e-16
vt 1749.78 -7.89492e-16
vt 1749.78 273.403
vt 1531.06 273.403
f 33/239/5 32/240/5 68/241/5 67/242/5 

vt 1219.14 -7.89492e-16
f 32/236/18 31/243/18 69/106/18 68/237/18 

vt -1749.78 -7.89492e-16
vt -1093.61 -7.89492e-16
vt -1093.61 273.403
vt -1749.78 273.403
f 31/244/1 30/245/1 70/246/1 69/247/1 

vt -781.693 -7.89492e-16
vt -781.693 273.403
f 30/226/17 29/248/17 71/249/17 70/41/17 

vn -2.88765e-16 0 -1
vt -2.25725e-13 -7.89492e-16
vt -2.25725e-13 273.403
f 29/245/19 28/250/19 72/251/19 71/246/19 

vt 781.693 -7.89492e-16
vt 1875.31 -7.89492e-16
vt 1875.31 273.403
vt 781.693 273.403
f 28/252/18 27/253/18 73/254/18 72/255/18 

vt 0 -7.89492e-16
vt 1093.61 -7.89492e-16
vt 1093.61 273.403
vt 0 273.403
f 27/256/5 26/257/5 74/258/5 73/259/5 

vt -1875.31 -7.89492e-16
vt -1437.86 -7.89492e-16
vt -1437.86 273.403
vt -1875.31 273.403
f 26/260/17 25/261/17 75/262/17 74/263/17 

vt 1421.7 -7.89492e-16
vt 1421.7 273.403
f 25/257/5 24/264/5 76/265/5 75/258/5 

vt 1437.86 -7.89492e-16
vt 1459.73 -7.89492e-16
vt 1459.73 273.403
vt 1437.86 273.403
f 24/266/18 23/267/18 77/268/18 76/269/18 

vt -1421.7 -7.89492e-16
vt -1202.97 -7.89492e-16
vt -1202.97 273.403
vt -1421.7 273.403
f 23/270/1 22/271/1 78/272/1 77/273/1 

vt 2006.54 -7.89492e-16
vt 2006.54 273.403
f 22/267/18 21/274/18 79/275/18 78/268/18 

vt 1202.97 -7.89492e-16
vt 1202.97 273.403
f 21/276/5 20/240/5 80/241/5 79/277/5 

vt -2006.54 -7.89492e-16
vt -1459.73 -7.89492e-16
vt -1459.73 273.403
vt -2006.54 273.403
f 20/278/17 19/279/17 81/280/17 80/281/17 

f 19/244/1 18/2/1 82/3/1 81/247/1 

f 18/279/17 17/261/17 83/262/17 82/280/17 

vt 2187.23 -7.89492e-16
f 17/239/5 16/282/5 84/103/5 83/242/5 

vt 1765.94 -7.89492e-16
vt 1765.94 273.403
f 16/266/18 15/283/18 85/284/18 84/269/18 

vt 2241.91 -7.89492e-16
f 15/282/5 14/285/5 86/164/5 85/103/5 

vt 1787.82 -7.89492e-16
vt 1787.82 273.403
f 14/283/18 13/286/18 87/287/18 86/284/18 

vt -2241.91 -7.89492e-16
vt -2023.18 -7.89492e-16
f 13/288/1 12/289/1 88/170/1 87/157/1 

vt 2334.62 -7.89492e-16
vt 2334.62 273.403
f 12/286/18 11/290/18 89/291/18 88/287/18 

vt 2023.18 -7.89492e-16
vt 2569.99 -7.89492e-16
f 11/292/5 10/293/5 90/178/5 89/163/5 

vt -2334.62 -7.89492e-16
vt -1787.82 -7.89492e-16
vt -1787.82 273.403
vt -2334.62 273.403
f 10/294/17 9/295/17 91/296/17 90/297/17 

vt -2569.99 -7.89492e-16
vt -2351.27 -7.89492e-16
f 9/298/1 8/299/1 92/142/1 91/169/1 

vt -1765.94 -7.89492e-16
f 8/295/17 7/300/17 93/42/17 92/296/17 

vt 2351.27 -7.89492e-16
vt 2405.95 -7.89492e-16
f 7/301/5 6/302/5 40/104/5 93/177/5 

